<svg xmlns="http://www.w3.org/2000/svg" xmlns:xlink="http://www.w3.org/1999/xlink" viewBox="0 0 804.08 877.19"><defs><clipPath id="clip-path"><rect y="494.66" width="263.48" height="288.55" style="fill:none"/></clipPath><linearGradient id="linear-gradient" x1="63.24" y1="383.49" x2="719.28" y2="383.49" gradientUnits="userSpaceOnUse"><stop offset="0" stop-color="#d49279"/><stop offset="0.25" stop-color="#fbbba1"/><stop offset="0.25" stop-color="#f8b89e"/><stop offset="0.32" stop-color="#e2a187"/><stop offset="0.39" stop-color="#d29077"/><stop offset="0.46" stop-color="#c9866d"/><stop offset="0.56" stop-color="#c6836a"/><stop offset="0.63" stop-color="#ce8c73"/><stop offset="0.74" stop-color="#e5a48a"/><stop offset="0.82" stop-color="#fbbba1"/><stop offset="0.96" stop-color="#da987e"/></linearGradient><linearGradient id="linear-gradient-2" x1="47.47" y1="383.49" x2="735.05" y2="383.49" xlink:href="#linear-gradient"/><clipPath id="clip-path-2"><rect x="499.39" y="494.66" width="277.22" height="314.93" style="fill:none"/></clipPath><clipPath id="clip-path-3"><rect y="-57.71" width="786.5" height="336.92" style="fill:none"/></clipPath><linearGradient id="linear-gradient-7" x1="389.93" y1="596.61" x2="394.57" y2="708.4" gradientUnits="userSpaceOnUse"><stop offset="0" stop-color="#c38067"/><stop offset="0.12" stop-color="#d8967c"/><stop offset="0.29" stop-color="#f3b298"/><stop offset="0.48" stop-color="#d39077"/><stop offset="0.59" stop-color="#c6836a"/><stop offset="0.69" stop-color="#ca886f"/><stop offset="0.81" stop-color="#d7957c"/><stop offset="0.93" stop-color="#ecab92"/><stop offset="1" stop-color="#fbbba1"/></linearGradient><linearGradient id="linear-gradient-8" x1="538.79" y1="815.23" x2="426.71" y2="806.63" gradientUnits="userSpaceOnUse"><stop offset="0.19" stop-color="#c38067"/><stop offset="0.27" stop-color="#c8866d"/><stop offset="0.38" stop-color="#d8967d"/><stop offset="0.5" stop-color="#f1b197"/><stop offset="0.54" stop-color="#fbbba1"/><stop offset="0.72" stop-color="#c6836a"/><stop offset="0.84" stop-color="#cb886f"/><stop offset="0.99" stop-color="#d9977e"/></linearGradient><linearGradient id="linear-gradient-9" x1="408.91" y1="671.74" x2="571.67" y2="690.07" gradientUnits="userSpaceOnUse"><stop offset="0.28" stop-color="#c38067"/><stop offset="0.35" stop-color="#cc8970"/><stop offset="0.46" stop-color="#e3a188"/><stop offset="0.55" stop-color="#fbbba1"/><stop offset="0.66" stop-color="#e3a288"/><stop offset="0.79" stop-color="#ce8b72"/><stop offset="0.87" stop-color="#c6836a"/></linearGradient><linearGradient id="linear-gradient-10" x1="217.99" y1="736.92" x2="398.4" y2="769.54" gradientUnits="userSpaceOnUse"><stop offset="0.09" stop-color="#c38067"/><stop offset="0.16" stop-color="#ca876e"/><stop offset="0.27" stop-color="#dd9b82"/><stop offset="0.37" stop-color="#f6b69c"/><stop offset="0.44" stop-color="#e4a289"/><stop offset="0.54" stop-color="#ce8b72"/><stop offset="0.61" stop-color="#c6836a"/><stop offset="0.68" stop-color="#cc8970"/><stop offset="0.77" stop-color="#dd9c82"/><stop offset="0.89" stop-color="#f9b99f"/><stop offset="0.89" stop-color="#fbbba1"/><stop offset="0.93" stop-color="#f9b89e"/><stop offset="0.96" stop-color="#f1b096"/><stop offset="0.98" stop-color="#e3a288"/><stop offset="1" stop-color="#d08d74"/><stop offset="1" stop-color="#cb886f"/></linearGradient><linearGradient id="New_Gradient_Swatch" x1="180.88" y1="370.25" x2="262.18" y2="370.25" gradientUnits="userSpaceOnUse"><stop offset="0" stop-color="#8d4d3c"/><stop offset="0.19" stop-color="#c38067"/><stop offset="0.62" stop-color="#c6836a"/><stop offset="0.68" stop-color="#d6947a"/><stop offset="0.79" stop-color="#eaa990"/><stop offset="0.9" stop-color="#f7b79d"/><stop offset="1" stop-color="#fbbba1"/></linearGradient><linearGradient id="New_Gradient_Swatch-2" x1="271.38" y1="359.9" x2="325.08" y2="359.9" xlink:href="#New_Gradient_Swatch"/><linearGradient id="New_Gradient_Swatch-3" x1="318.18" y1="360.9" x2="397.48" y2="360.9" xlink:href="#New_Gradient_Swatch"/><linearGradient id="New_Gradient_Swatch-4" x1="415.28" y1="388.5" x2="478.98" y2="388.5" xlink:href="#New_Gradient_Swatch"/><linearGradient id="New_Gradient_Swatch-5" x1="465.48" y1="394.45" x2="543.98" y2="394.45" xlink:href="#New_Gradient_Swatch"/><linearGradient id="New_Gradient_Swatch-6" x1="541.38" y1="375.55" x2="605.48" y2="375.55" xlink:href="#New_Gradient_Swatch"/><linearGradient id="New_Gradient_Swatch-7" x1="268.22" y1="228.33" x2="285.22" y2="228.33" xlink:href="#New_Gradient_Swatch"/><linearGradient id="New_Gradient_Swatch-8" x1="289.9" y1="228.31" x2="304.9" y2="228.31" xlink:href="#New_Gradient_Swatch"/><linearGradient id="New_Gradient_Swatch-9" x1="308.78" y1="228.33" x2="330.9" y2="228.33" xlink:href="#New_Gradient_Swatch"/><linearGradient id="New_Gradient_Swatch-10" x1="341.86" y1="228.31" x2="364.42" y2="228.31" xlink:href="#New_Gradient_Swatch"/><linearGradient id="New_Gradient_Swatch-11" x1="366.18" y1="228.29" x2="386.66" y2="228.29" xlink:href="#New_Gradient_Swatch"/><linearGradient id="New_Gradient_Swatch-12" x1="389.1" y1="228.31" x2="411.66" y2="228.31" xlink:href="#New_Gradient_Swatch"/><linearGradient id="New_Gradient_Swatch-13" x1="415.62" y1="228.33" x2="437.74" y2="228.33" xlink:href="#New_Gradient_Swatch"/><linearGradient id="New_Gradient_Swatch-14" x1="442.26" y1="228.31" x2="457.42" y2="228.31" xlink:href="#New_Gradient_Swatch"/><linearGradient id="New_Gradient_Swatch-15" x1="461.22" y1="228.31" x2="488.73" y2="228.31" xlink:href="#New_Gradient_Swatch"/><linearGradient id="New_Gradient_Swatch-16" x1="491.58" y1="228.31" x2="512.65" y2="228.31" xlink:href="#New_Gradient_Swatch"/><linearGradient id="New_Gradient_Swatch-17" x1="144.6" y1="532.62" x2="179.29" y2="532.62" xlink:href="#New_Gradient_Swatch"/><linearGradient id="New_Gradient_Swatch-18" x1="216.97" y1="532.62" x2="245.56" y2="532.62" xlink:href="#New_Gradient_Swatch"/><linearGradient id="New_Gradient_Swatch-19" x1="274.93" y1="532.62" x2="325.44" y2="532.62" xlink:href="#New_Gradient_Swatch"/><linearGradient id="New_Gradient_Swatch-20" x1="401.38" y1="532.62" x2="438.32" y2="532.62" xlink:href="#New_Gradient_Swatch"/><linearGradient id="New_Gradient_Swatch-21" x1="467.93" y1="532.62" x2="504.26" y2="532.62" xlink:href="#New_Gradient_Swatch"/><linearGradient id="New_Gradient_Swatch-22" x1="537.65" y1="532.62" x2="570.87" y2="532.62" xlink:href="#New_Gradient_Swatch"/><linearGradient id="New_Gradient_Swatch-23" x1="602.94" y1="532.62" x2="637.71" y2="532.62" xlink:href="#New_Gradient_Swatch"/></defs><g id="Layer_12" data-name="Layer 12"><g style="clip-path:url(#clip-path)"><circle cx="391.26" cy="383.49" r="327.02" style="fill:none;stroke-miterlimit:10;stroke-width:2px;stroke:url(#linear-gradient)"/><circle cx="391.26" cy="383.49" r="342.74" style="fill:none;stroke-miterlimit:10;stroke-width:2.09612831939574px;stroke:url(#linear-gradient-2)"/></g></g><g id="Layer_13" data-name="Layer 13"><g style="clip-path:url(#clip-path-2)"><circle cx="391.26" cy="383.49" r="327.02" style="fill:none;stroke-miterlimit:10;stroke-width:2px;stroke:url(#linear-gradient)"/><circle cx="391.26" cy="383.49" r="342.74" style="fill:none;stroke-miterlimit:10;stroke-width:2.09612831939574px;stroke:url(#linear-gradient-2)"/></g></g><g id="Layer_14" data-name="Layer 14"><g style="clip-path:url(#clip-path-3)"><circle cx="391.26" cy="383.49" r="327.02" style="fill:none;stroke-miterlimit:10;stroke-width:2px;stroke:url(#linear-gradient)"/><circle cx="391.26" cy="383.49" r="342.74" style="fill:none;stroke-miterlimit:10;stroke-width:2.09612831939574px;stroke:url(#linear-gradient-2)"/></g></g><g id="Layer_10" data-name="Layer 10"><path d="M346.57,665.67a89.73,89.73,0,0,0,4.48,14.44A108.18,108.18,0,0,0,366.26,706c3.11,4,6.51,7.64,10,11.3,1.65,1.74,9.82,8.08,9.84,10-.14-16.85,1.91-34,2.73-50.88q.74-15,1.53-29.92l.81-15c.13-2.36-.14-5.21.42-7.5a6.91,6.91,0,0,1,.91-2.12c1.55,8.08.92,17.22,1.28,25.47q.6,13.35,1.14,26.69c.72,17.71,1.11,35.53,1.94,53.18,7.67-4.66,12.72-11.73,16.94-16.87a134.89,134.89,0,0,0,14.92-21.87c7.83-14.58,12.33-31.33,10.39-47.77S429,609.19,419.74,595.4s-19.64-26.85-27-41.69L369.78,587c-9.48,13.76-19.15,27.91-23.13,44.14A76.72,76.72,0,0,0,346.57,665.67Z" style="fill:url(#linear-gradient-7)"/><path d="M495,797.25c-.46-.5-.93-1-1.4-1.49a66.89,66.89,0,0,0-8.13-7.19,26,26,0,0,0-3.58-2.69c-1.62-.77-3.77-.35-5.49-.36-3.27,0-6.54.11-9.8-.22-4.86-.51-9.95-2.3-14.85-1.5,1.11,4.36,5.9,8,8.79,11.26a135.9,135.9,0,0,0,10.54,10.66c1.26,1.15,4.95,3.79,4.73,5.52-2.8-.11-5.33-3.29-7.27-5l-16-14.45c-5.72-5.17-11.76-10.57-19.17-13.14-8.25-2.87-16.5-6.34-25-8.64-1-.27-9.43-3.32-10.29-1.92-.38.62,1.48,1.9,1.7,2.13a35.62,35.62,0,0,1,5.53,8.33c5.55,10.35,12,20.36,20.15,28.87,8.38,8.77,18.34,14.86,29.51,19.37,4.12,1.67,8.51,2.5,12.8,3.56a115.55,115.55,0,0,1,40.89,19.47c3.07-12.48,2.63-25.3-3.09-36.92A68.14,68.14,0,0,0,495,797.25Z" style="fill:url(#linear-gradient-8)"/><path d="M544.78,741.81q1.65-.84,3.33-1.62a126,126,0,0,1,32.15-10.08c-24.39-14.42-52.82-20.54-81-23.72,1.1.12,5.24-7.45,5.88-8.5a87.58,87.58,0,0,0,5.11-9.68,162.48,162.48,0,0,0,7.46-20.54c4.34-14.62,7.09-29.77,13.09-43.86a220.44,220.44,0,0,1,16.64-26.44l-17.13,3a5.2,5.2,0,0,0-.86.15,103.78,103.78,0,0,0-25.77,6.07c-3.64.1-6.66,2.13-10,3.23a185.45,185.45,0,0,0-21,8.81c-2,1.06-4.45,1.13-6,3L457.27,626c-1.75.83-2.29,2-1.8,4,2,8,1.29,16.17,1.32,24.3,0,8.43-3.68,17-3.16,25.24,3.45-1.13,7.11-5.55,9.92-8.05q5.19-4.59,10.26-9.33,10.45-9.76,20.38-20.08c.78-.81,1.27-1.49,2.28-1-.89,4.61-4.94,8.84-7.91,12.3q-10.08,11.7-20.73,22.89c-6.31,6.62-12.42,14.45-21,18.13-1.87.81-1.91,3.56-9.34,18.41-4.21,8.41-11.67,13.25-17,20.47,4.31-.2,8.94,1.47,13.25,1.92a46.38,46.38,0,0,0,14.16-.42c5.36-1.11,10.36-3.48,15.18-6.07A171.36,171.36,0,0,0,488,712.42c3.34-2.64,7.05-5.56,11.29-5.26-6.79,11.34-17,20.16-27,28.79l48-3.21c-2.32,2.1-5.59,2.7-8.68,3.22-9.73,1.62-19.47,3.24-29.28,4.17-6.84.66-13.76,1-20.4,2.75-5.68,1.52-11,4.06-16.54,6.06-9.31,3.37-19.1,5.19-28.83,7a117.59,117.59,0,0,0,98.82,1.46C525.42,752.81,534.84,746.79,544.78,741.81Zm-46.35-35.48-.72,0A3,3,0,0,1,498.43,706.33Z" style="fill:url(#linear-gradient-9)"/><path d="M395.78,764.43c-3.66-1.5-6.94-4.44-10.08-6.78-3.89-2.9-7.7-5.93-11.38-9.09a189.56,189.56,0,0,1-20.93-20.91c-4-3.31-9.38-5.18-14-7.6q-7.87-4.17-15.54-8.7c-3.15-1.87-35.95-21.58-34.81-23.8l.31-.61c.53-1,46.87,23.06,51.18,25.25,2.58,1.31,5.15,2.85,3.66-1.43-1.85-5.3-5.07-10.34-7.29-15.53a113,113,0,0,1-6.59-19.72c-1.2-5.35.32-13.88-6-15.65a268.63,268.63,0,0,0-52.82-9.62,200.3,200.3,0,0,0-27.06-.21c-7.94.5-18.14.57-25.5,3.65,5.32,4.9,11.89,8.27,17,13.5a211.73,211.73,0,0,1,15,17.55c10.5,13.28,20.39,27.63,31.86,40.06,10.52,11.4,23.42,20.77,37,28.16a145.88,145.88,0,0,0,34.45,13.4c12.51,3.09,25.12,3.71,37.92,4.61-10.16,5.1-21.77,7-31.6,12.66-11.44,6.62-19.64,17.92-31.23,24.26l16.93-18.13c1.23-1.33,2.41-3.61.95-4.67a3.36,3.36,0,0,0-2-.39l-13.71.34c-4.07.1-8.22.22-12,1.68s-7.16,4.35-10.09,7.35a67.29,67.29,0,0,0-15.69,24.43,48.14,48.14,0,0,0-1.33,28.78,1.66,1.66,0,0,0,.3.66c.56.64,1.6.12,2.27-.41,17.56-13.8,41.74-15.3,61.67-25.38,19.43-9.82,37.49-30.2,40.24-52.36.08-.72,5.08.53,5.4-1.24.26-1.48-4.71-3.45-5.76-3.82C396.28,764.63,396,764.54,395.78,764.43Z" style="fill:url(#linear-gradient-10)"/></g><g id="Layer_2" data-name="Layer 2"><path d="M197.08,443q-15.2,0-15.2-10.7c0-4.46.67-6.7,2-6.7s2.1.47,2.1,1.4v.3a21,21,0,0,0-.4,4q0,8.81,8.4,9.1a37.6,37.6,0,0,0,11.8-1.9q26.1-7.8,41.3-27.6,9.3-12.19,9.3-24.8t-10.6-19.8q-9.9-6.39-23.8-6.9-6,0-9.5-2.6a4.81,4.81,0,0,0-.7,2.6,207.92,207.92,0,0,1-4.6,21.4q-4.4,18.81-6.3,33-.49,3.3-1.9,14.2a5.5,5.5,0,0,0,.2,1.5,4.66,4.66,0,0,1,.2,1.2q0,1.8-2.1,1.8-2.49,0-3-1.8a19.53,19.53,0,0,1-.2-2.7q0-9.9,2.8-32.6,1.11-9.09,1.9-18.4a233.3,233.3,0,0,1,3.4-23.1q2.1-13.89,5.5-27.6,2-8.19,4.4-11.4a2.14,2.14,0,0,1,1.5-1l1.3.2a3.18,3.18,0,0,0,2.2-1.4,44.57,44.57,0,0,1,9.4-7,31.14,31.14,0,0,1,15.4-4.2,31.83,31.83,0,0,1,3.6.3,13.1,13.1,0,0,1,5.7,2.7q3.9,2.91,3.9,7a9.62,9.62,0,0,1-.6,3.2,34.1,34.1,0,0,1-5.7,10.6,184.49,184.49,0,0,1-26.9,28.3l-1.6,1.5q6.71.9,10.4,1.6a52.69,52.69,0,0,1,21,9.4,33.2,33.2,0,0,1,7.8,8.4,26.58,26.58,0,0,1,3.7,14.4,34.33,34.33,0,0,1-3,14,52.69,52.69,0,0,1-19.4,23.4,98.1,98.1,0,0,1-37.5,16A27.87,27.87,0,0,1,197.08,443Zm16.5-92.6a1.06,1.06,0,0,0,.5-.1q8.21-8.4,16.6-16.7,17.9-17.89,17.9-25.5a1.37,1.37,0,0,0-1.3-1.5,16.92,16.92,0,0,0-2.5-.2,15.26,15.26,0,0,0-3,.3q-12.71,2.21-22.3,12.8a3.1,3.1,0,0,0-1.2,2.2q-1.09,8.1-2.6,16.1-2.2,10.41-2.2,11.6Z" style="fill:#964f3b"/><path d="M293.08,423.5a13.33,13.33,0,0,1-2.3-.2q-13.09-2.19-16.9-17.4a56,56,0,0,1-1.5-13.2,74.17,74.17,0,0,1,1-11.4q4.39-28.59,26.7-63.6a67.08,67.08,0,0,1,12.5-14.6c2.13-1.86,4.2-2.8,6.2-2.8q6.2,0,6.2,8.1a34.34,34.34,0,0,1-.8,6.3,74.16,74.16,0,0,1-7.2,19,166.61,166.61,0,0,1-28.4,39.6,7.39,7.39,0,0,0-2,3.6,109.94,109.94,0,0,0-2.6,20.9l.1,3.8q.19,11.31,4.7,16.8a3.79,3.79,0,0,0,2.8,1.4,4.84,4.84,0,0,0,1.4-.2q5.2-1.69,10.7-10,8.51-12,20.3-34.2c.6-1.13,1.1-1.7,1.5-1.7a.53.53,0,0,1,.6.6q-1.5,4.5-16.9,32.8-4.9,8.91-8.5,12.8A9.85,9.85,0,0,1,293.08,423.5Zm-4.2-55.4a1.58,1.58,0,0,0,.9-.3,151.11,151.11,0,0,0,23.7-33.8q8.29-14.7,8.3-25.7a15.23,15.23,0,0,0-.6-4.2,8.46,8.46,0,0,0-3.7,2.8c0,.07,0,.1-.1.1q-9.79,12-21.1,40.5A209.62,209.62,0,0,0,288.88,368.1Z" style="fill:#964f3b"/><path d="M368.18,414a15.37,15.37,0,0,1-6.1-1.5,21.06,21.06,0,0,1-9.2-8.7,45.38,45.38,0,0,1-6.2-20.3l-.3-3q-.9.9-4.4,9.9-1.5,4.11-3.2,8.25a45.67,45.67,0,0,1-4.3,8.05,5.12,5.12,0,0,1-4.4,2.5,7,7,0,0,1-1.6-.2,10.48,10.48,0,0,1-8.5-8.2,36.52,36.52,0,0,1-.8-7.5,31.14,31.14,0,0,1,1-7.8,48,48,0,0,1,7.8-18.2,28.4,28.4,0,0,1,11.2-9.5,11,11,0,0,1,5.1-1.3,6.46,6.46,0,0,1,4.5,2.2l1.1-2.7q5.81-18.3,16.4-30.6a50.76,50.76,0,0,1,11.9-10.7,16.51,16.51,0,0,1,8-2.9q7.4,0,7.4,7.7a17.27,17.27,0,0,1-1.2,6.3,43.55,43.55,0,0,1-10,16.1,94,94,0,0,1-22.7,18.3,3.42,3.42,0,0,0-2,2.6,88.79,88.79,0,0,0-1.5,16.2q0,14.61,5.5,25.2,3.19,6.71,7,6.7a5.15,5.15,0,0,0,2.3-.6,24.39,24.39,0,0,0,9.6-7.55,69,69,0,0,0,7.6-11.75q3.3-6.39,5.7-12.2l1.9-4a2.29,2.29,0,0,1,1.4-1.1,1.18,1.18,0,0,1,1.05.4,1.5,1.5,0,0,1,.25.8l-3.3,7.3q-2.81,6-6.1,12.3-7.6,14.61-17.1,18.7A8.71,8.71,0,0,1,368.18,414Zm-38.1-9.3c1.47-.6,3.17-2.76,5.1-6.5a161.29,161.29,0,0,0,10.4-26.3q2.6-8.59,2.6-10.8a2.59,2.59,0,0,0-1.5-2.2,3,3,0,0,0-1.1-.3,2.75,2.75,0,0,0-1.9,1.1,31.16,31.16,0,0,0-4.8,6.2q-9.3,16.41-9.3,33.4A26.82,26.82,0,0,0,330.08,404.7Zm28.8-47.3,1.4-.7a95,95,0,0,0,23.9-20.2,32.93,32.93,0,0,0,6.6-11.1,18.82,18.82,0,0,0,1.2-5.9,5.64,5.64,0,0,0-2-4.5,4.16,4.16,0,0,0-2.9-1.1,9,9,0,0,0-3.4.8,24.89,24.89,0,0,0-6.7,5.4Q363.68,334.8,358.88,357.4Z" style="fill:#964f3b"/><path d="M429.08,460.1a23.66,23.66,0,0,1-4.3-.4q-8.5-2.1-8.5-10.8a28.23,28.23,0,0,1,2.9-11.5,79.82,79.82,0,0,1,10.5-17.4q6.39-8.1,13.5-15.8a3.23,3.23,0,0,0,1.3-2.5,2.9,2.9,0,0,0-.4-1.4,61.3,61.3,0,0,0-9.9-18.9,138.62,138.62,0,0,1-8.8-13.7,36.79,36.79,0,0,1-4.8-18,32.29,32.29,0,0,1,5.3-17.5,25.4,25.4,0,0,1,10.7-9.5,16,16,0,0,1,7.2-1.8,16.32,16.32,0,0,1,4.3.6q18.3,5.7,19.6,25.6a18.08,18.08,0,0,1-1.2,6.4c-.2.8-.54,1.2-1,1.2-.67,0-1-.36-1-1.1a16.38,16.38,0,0,1,.5-3.5,32.61,32.61,0,0,0,.3-4.2,24.59,24.59,0,0,0-3.9-12.9,20.53,20.53,0,0,0-12-8.9,12.61,12.61,0,0,0-3.8-.6,13.84,13.84,0,0,0-6.7,1.8q-13.31,7.9-13.3,23.5a28.1,28.1,0,0,0,2.5,11.6,47.88,47.88,0,0,0,6.6,11l6.4,7.9a166.92,166.92,0,0,1,10.5,13.7l.4.7.6.3a9.14,9.14,0,0,0,2-1.7q18.19-18.3,24.6-18.3c.53,0,.8.17.8.5s-.37.6-1.1,1q-5.91,2.21-12.4,8.7-2.31,2-11.3,11.1a4.75,4.75,0,0,0-1.1,1.6,5.26,5.26,0,0,0,.6,1.5,45.64,45.64,0,0,1,4.8,20.3,54.43,54.43,0,0,1-4,19.9,35.74,35.74,0,0,1-10.2,14.8Q437.67,460.11,429.08,460.1Zm-1.8-3a13.87,13.87,0,0,0,10-4.5,25.51,25.51,0,0,0,6.4-10.6,84.22,84.22,0,0,0,3.6-24.9,38.45,38.45,0,0,0-1.6-10.9q-2,1.41-10.7,12.5-10.71,13.5-14.2,24a17.4,17.4,0,0,0-1.1,6Q419.68,456.61,427.28,457.1Z" style="fill:#964f3b"/><path d="M470.48,442.7q-4,0-4-3.6v-3q0-30.3,15-70.5a31.7,31.7,0,0,1,3-6.3c.8-1.26,1.63-1.9,2.5-1.9q4.5.81,4.5,4.5a6.74,6.74,0,0,0-.2,1.5q-2,11.1-5,22a1.31,1.31,0,0,1-.1.45,2.08,2.08,0,0,0-.1.75,1.5,1.5,0,0,0,.2.7,185.19,185.19,0,0,1,11.9-17.4q14.7-19.69,23.6-19.7,5.79,0,9.4,6a20.42,20.42,0,0,1,2.2,9.2,36.17,36.17,0,0,1-1.8,11.7,1,1,0,0,0,.7.3,1.06,1.06,0,0,0,.55-.15.86.86,0,0,1,.45-.15q3.39-1.2,7.5-2.8a10.58,10.58,0,0,1,2.6-.6c1.06,0,1.6.4,1.6,1.2a.58.58,0,0,1-.35.5,1.9,1.9,0,0,1-.75.25,2.34,2.34,0,0,0-.6.15q-5.81,2.7-11.7,5a5.66,5.66,0,0,0-2.9,2.8,55.82,55.82,0,0,1-17.2,20.3,29.43,29.43,0,0,1-7.8,4.2,7.19,7.19,0,0,1-2.3.4,7.07,7.07,0,0,1-4.1-1.3,3.71,3.71,0,0,1-1.9-3.1c0-1.73.86-3.76,2.6-6.1a41.08,41.08,0,0,1,20.8-14.8,4.32,4.32,0,0,0,2.3-2.3,49.28,49.28,0,0,0,5.9-19.1l.2-1.8c0-4-1.14-6-3.4-6q-6.4,0-13,6.6a127.66,127.66,0,0,0-17.4,21.4q-10.5,15.81-12.3,22.7-8.31,35-8.5,35.4C472.24,441.84,471.54,442.7,470.48,442.7ZM501,403.2a51.43,51.43,0,0,0,8.15-6.45,38.49,38.49,0,0,0,6.25-7.35,36.63,36.63,0,0,0-9.45,6.75Q501.58,400.41,501,403.2Z" style="fill:#964f3b"/><path d="M584.68,403.7a8.68,8.68,0,0,1-5.45-2.1A18.66,18.66,0,0,1,575,397a29,29,0,0,1-3.6-13.7,20.69,20.69,0,0,1,.4-5.1q-2.5,3.9-6.6,9.5-7.41,9.9-13.2,9.9-6,0-8.5-6.9a25.36,25.36,0,0,1-1.1-7.7,38.71,38.71,0,0,1,4.3-17.7q7-13.89,18.8-13.9,6,0,8.7,4.6a11,11,0,0,1,1.5,5.6,11.18,11.18,0,0,1-.4,2.8,4.67,4.67,0,0,0,.9-1.6,28.65,28.65,0,0,1,5.1-8.1c1.86-1.86,3.63-2.8,5.3-2.8s2.7.77,2.7,2.3c0,.6-.57,1.87-1.7,3.8a63.63,63.63,0,0,0-8.6,30.6,20.72,20.72,0,0,0,1.3,7.5q1.69,4.61,4.8,4.6c1.33,0,2.9-.86,4.7-2.6q7.59-7,14.6-24a1.76,1.76,0,0,1,.9-.5,1.49,1.49,0,0,1,.85.25.71.71,0,0,1,.35.55l-.1.4Q594.38,403.71,584.68,403.7Zm-32.3-9.1q4,0,13.1-13,4-5.79,4.5-6.8a18.93,18.93,0,0,0,3.5-11.1c0-3.86-.7-6.5-2.1-7.9a6,6,0,0,0-4.4-1.4q-9.6,1.8-14.2,15.5a52.63,52.63,0,0,0-3,17C549.78,392,550.64,394.6,552.38,394.6Z" style="fill:#964f3b"/><path d="M198.44,442.06q-15.19,0-15.2-10.7,0-6.71,2-6.7c1.4,0,2.1.46,2.1,1.4v.3a20,20,0,0,0-.4,4q0,8.79,8.4,9.1a37.89,37.89,0,0,0,11.8-1.9q26.1-7.8,41.3-27.6,9.3-12.21,9.3-24.8t-10.6-19.8q-9.9-6.41-23.8-6.9-6,0-9.5-2.6a4.7,4.7,0,0,0-.7,2.6,208.49,208.49,0,0,1-4.6,21.4q-4.39,18.79-6.3,33-.5,3.3-1.9,14.2a5.6,5.6,0,0,0,.2,1.5,4.53,4.53,0,0,1,.2,1.2q0,1.8-2.1,1.8-2.5,0-3-1.8a19.76,19.76,0,0,1-.2-2.7q0-9.9,2.8-32.6,1.09-9.1,1.9-18.4a233.3,233.3,0,0,1,3.4-23.1q2.1-13.9,5.5-27.6,2-8.21,4.4-11.4a2.11,2.11,0,0,1,1.5-1l1.3.2a3.22,3.22,0,0,0,2.2-1.4,43.9,43.9,0,0,1,9.4-7,31.14,31.14,0,0,1,15.4-4.2,31.83,31.83,0,0,1,3.6.3,13.1,13.1,0,0,1,5.7,2.7q3.9,2.9,3.9,7a9.66,9.66,0,0,1-.6,3.2,34.21,34.21,0,0,1-5.7,10.6,185.41,185.41,0,0,1-26.9,28.3l-1.6,1.5q6.71.9,10.4,1.6a52.56,52.56,0,0,1,21,9.4,32.87,32.87,0,0,1,7.8,8.4,26.54,26.54,0,0,1,3.7,14.4,34.37,34.37,0,0,1-3,14,52.87,52.87,0,0,1-19.4,23.4,98.41,98.41,0,0,1-37.5,16A28.47,28.47,0,0,1,198.44,442.06Zm16.5-92.6a1.2,1.2,0,0,0,.5-.1q8.2-8.4,16.6-16.7,17.9-17.91,17.9-25.5a1.36,1.36,0,0,0-1.3-1.5,15.67,15.67,0,0,0-2.5-.2,15.26,15.26,0,0,0-3,.3q-12.7,2.19-22.3,12.8a3.09,3.09,0,0,0-1.2,2.2q-1.09,8.1-2.6,16.1-2.21,10.39-2.2,11.6Z" style="fill:#feab9c"/><path d="M294.44,422.56a14.31,14.31,0,0,1-2.3-.2Q279,420.16,275.24,405a56.07,56.07,0,0,1-1.5-13.2,72.94,72.94,0,0,1,1-11.4q4.39-28.61,26.7-63.6a66.84,66.84,0,0,1,12.5-14.6q3.19-2.81,6.2-2.8,6.19,0,6.2,8.1a34.55,34.55,0,0,1-.8,6.3,74.67,74.67,0,0,1-7.2,19,166.61,166.61,0,0,1-28.4,39.6,7.39,7.39,0,0,0-2,3.6,109,109,0,0,0-2.6,20.9l.1,3.8q.19,11.29,4.7,16.8a3.82,3.82,0,0,0,2.8,1.4,5.2,5.2,0,0,0,1.4-.2q5.21-1.71,10.7-10,8.49-12,20.3-34.2c.6-1.14,1.1-1.7,1.5-1.7a.53.53,0,0,1,.6.6q-1.5,4.5-16.9,32.8-4.91,8.89-8.5,12.8A9.85,9.85,0,0,1,294.44,422.56Zm-4.2-55.4a1.79,1.79,0,0,0,.9-.3,151.34,151.34,0,0,0,23.7-33.8q8.3-14.7,8.3-25.7a15.23,15.23,0,0,0-.6-4.2,8.33,8.33,0,0,0-3.7,2.8.09.09,0,0,1-.1.1q-9.81,12-21.1,40.5A207.78,207.78,0,0,0,290.24,367.16Z" style="fill:#feab9c"/><path d="M369.54,413.06a15.33,15.33,0,0,1-6.1-1.5,21.12,21.12,0,0,1-9.2-8.7,45.34,45.34,0,0,1-6.2-20.3l-.3-3q-.9.9-4.4,9.9-1.5,4.1-3.2,8.25a46.71,46.71,0,0,1-4.3,8.05,5.15,5.15,0,0,1-4.4,2.5,7.66,7.66,0,0,1-1.6-.2,10.49,10.49,0,0,1-8.5-8.2,36.66,36.66,0,0,1-.8-7.5,31.14,31.14,0,0,1,1-7.8,47.94,47.94,0,0,1,7.8-18.2,28.24,28.24,0,0,1,11.2-9.5,10.86,10.86,0,0,1,5.1-1.3,6.42,6.42,0,0,1,4.5,2.2l1.1-2.7q5.79-18.3,16.4-30.6a50.34,50.34,0,0,1,11.9-10.7,16.27,16.27,0,0,1,8-2.9q7.4,0,7.4,7.7a17.35,17.35,0,0,1-1.2,6.3,43.84,43.84,0,0,1-10,16.1,94.48,94.48,0,0,1-22.7,18.3,3.37,3.37,0,0,0-2,2.6,88.79,88.79,0,0,0-1.5,16.2q0,14.6,5.5,25.2,3.19,6.69,7,6.7a5.15,5.15,0,0,0,2.3-.6,24.58,24.58,0,0,0,9.6-7.55,70.43,70.43,0,0,0,7.6-11.75q3.3-6.4,5.7-12.2l1.9-4a2.22,2.22,0,0,1,1.4-1.1,1.15,1.15,0,0,1,1,.4,1.53,1.53,0,0,1,.25.8l-3.3,7.3q-2.81,6-6.1,12.3-7.6,14.6-17.1,18.7A8.89,8.89,0,0,1,369.54,413.06Zm-38.1-9.3q2.19-.9,5.1-6.5a161.66,161.66,0,0,0,10.4-26.3q2.6-8.61,2.6-10.8A2.58,2.58,0,0,0,348,358a3.09,3.09,0,0,0-1.1-.3,2.7,2.7,0,0,0-1.9,1.1,30.87,30.87,0,0,0-4.8,6.2q-9.3,16.4-9.3,33.4A26.12,26.12,0,0,0,331.44,403.76Zm28.8-47.3,1.4-.7a95.39,95.39,0,0,0,23.9-20.2,33.12,33.12,0,0,0,6.6-11.1,18.88,18.88,0,0,0,1.2-5.9,5.61,5.61,0,0,0-2-4.5,4.12,4.12,0,0,0-2.9-1.1,8.76,8.76,0,0,0-3.4.8,24.73,24.73,0,0,0-6.7,5.4Q365,333.86,360.24,356.46Z" style="fill:#feab9c"/><path d="M430.44,459.16a24.58,24.58,0,0,1-4.3-.4q-8.5-2.1-8.5-10.8a28.19,28.19,0,0,1,2.9-11.5,79.82,79.82,0,0,1,10.5-17.4q6.39-8.1,13.5-15.8a3.26,3.26,0,0,0,1.3-2.5,2.84,2.84,0,0,0-.4-1.4,61.07,61.07,0,0,0-9.9-18.9,139.8,139.8,0,0,1-8.8-13.7,36.79,36.79,0,0,1-4.8-18,32.27,32.27,0,0,1,5.3-17.5,25.34,25.34,0,0,1,10.7-9.5,16,16,0,0,1,7.2-1.8,16.32,16.32,0,0,1,4.3.6q18.3,5.7,19.6,25.6a18.16,18.16,0,0,1-1.2,6.4c-.2.8-.54,1.2-1,1.2-.67,0-1-.37-1-1.1a16.21,16.21,0,0,1,.5-3.5,32.86,32.86,0,0,0,.3-4.2,24.54,24.54,0,0,0-3.9-12.9,20.45,20.45,0,0,0-12-8.9,12.61,12.61,0,0,0-3.8-.6,13.84,13.84,0,0,0-6.7,1.8q-13.31,7.89-13.3,23.5a28.13,28.13,0,0,0,2.5,11.6,48.1,48.1,0,0,0,6.6,11l6.4,7.9a163.58,163.58,0,0,1,10.5,13.7l.4.7.6.3a9.46,9.46,0,0,0,2-1.7q18.19-18.3,24.6-18.3c.53,0,.8.16.8.5s-.37.6-1.1,1q-5.91,2.19-12.4,8.7-2.31,2-11.3,11.1a4.65,4.65,0,0,0-1.1,1.6,5.26,5.26,0,0,0,.6,1.5,45.61,45.61,0,0,1,4.8,20.3,54.47,54.47,0,0,1-4,19.9,35.81,35.81,0,0,1-10.2,14.8Q439,459.15,430.44,459.16Zm-1.8-3a13.87,13.87,0,0,0,10-4.5,25.57,25.57,0,0,0,6.4-10.6,84.22,84.22,0,0,0,3.6-24.9,38.4,38.4,0,0,0-1.6-10.9q-2,1.39-10.7,12.5-10.71,13.5-14.2,24a17.17,17.17,0,0,0-1.1,6Q421,455.65,428.64,456.16Z" style="fill:#feab9c"/><path d="M471.84,441.76q-4,0-4-3.6v-3q0-30.3,15-70.5a31.18,31.18,0,0,1,3-6.3c.8-1.27,1.63-1.9,2.5-1.9q4.5.8,4.5,4.5a6.74,6.74,0,0,0-.2,1.5q-2,11.1-5,22a1.42,1.42,0,0,1-.1.45,2,2,0,0,0-.1.75,1.54,1.54,0,0,0,.2.7,185.19,185.19,0,0,1,11.9-17.4q14.7-19.71,23.6-19.7,5.79,0,9.4,6a20.39,20.39,0,0,1,2.2,9.2,36.26,36.26,0,0,1-1.8,11.7,1,1,0,0,0,.7.3,1.06,1.06,0,0,0,.55-.15.86.86,0,0,1,.45-.15c2.26-.8,4.76-1.74,7.5-2.8a10.58,10.58,0,0,1,2.6-.6c1.06,0,1.6.4,1.6,1.2a.59.59,0,0,1-.35.5,2.29,2.29,0,0,1-.75.25,1.73,1.73,0,0,0-.6.15q-5.8,2.7-11.7,5a5.62,5.62,0,0,0-2.9,2.8,55.9,55.9,0,0,1-17.2,20.3,29.43,29.43,0,0,1-7.8,4.2,7.48,7.48,0,0,1-2.3.4,7.15,7.15,0,0,1-4.1-1.3,3.73,3.73,0,0,1-1.9-3.1c0-1.74.86-3.77,2.6-6.1a41,41,0,0,1,20.8-14.8,4.38,4.38,0,0,0,2.3-2.3,49.33,49.33,0,0,0,5.9-19.1l.2-1.8c0-4-1.14-6-3.4-6q-6.4,0-13,6.6a126.86,126.86,0,0,0-17.4,21.4q-10.5,15.79-12.3,22.7-8.31,35-8.5,35.4C473.6,440.89,472.9,441.76,471.84,441.76Zm30.5-39.5a52.61,52.61,0,0,0,8.15-6.45,39.11,39.11,0,0,0,6.25-7.35,36.16,36.16,0,0,0-9.45,6.75Q502.94,399.46,502.34,402.26Z" style="fill:#feab9c"/><path d="M586,402.76a8.68,8.68,0,0,1-5.45-2.1,18.84,18.84,0,0,1-4.25-4.6,29,29,0,0,1-3.6-13.7,20.58,20.58,0,0,1,.4-5.1q-2.5,3.9-6.6,9.5-7.41,9.9-13.2,9.9-6,0-8.5-6.9a25.4,25.4,0,0,1-1.1-7.7,38.65,38.65,0,0,1,4.3-17.7q7-13.91,18.8-13.9,6,0,8.7,4.6a11,11,0,0,1,1.5,5.6,11.24,11.24,0,0,1-.4,2.8,4.76,4.76,0,0,0,.9-1.6,28.38,28.38,0,0,1,5.1-8.1q2.79-2.81,5.3-2.8c1.8,0,2.7.76,2.7,2.3,0,.6-.57,1.86-1.7,3.8a63.63,63.63,0,0,0-8.6,30.6,20.8,20.8,0,0,0,1.3,7.5c1.13,3.06,2.73,4.6,4.8,4.6q2,0,4.7-2.6,7.59-7,14.6-24a1.63,1.63,0,0,1,.9-.5,1.42,1.42,0,0,1,.85.25.69.69,0,0,1,.35.55l-.1.4Q595.74,402.75,586,402.76Zm-32.3-9.1q4,0,13.1-13,4-5.81,4.5-6.8a19,19,0,0,0,3.5-11.1q0-5.81-2.1-7.9a6,6,0,0,0-4.4-1.4q-9.6,1.8-14.2,15.5a52.54,52.54,0,0,0-3,17C551.14,391.09,552,393.66,553.74,393.66Z" style="fill:#feab9c"/><path d="M196.08,441q-15.2,0-15.2-10.7c0-4.46.67-6.7,2-6.7s2.1.47,2.1,1.4v.3a21,21,0,0,0-.4,4q0,8.81,8.4,9.1a37.6,37.6,0,0,0,11.8-1.9q26.1-7.8,41.3-27.6,9.3-12.19,9.3-24.8t-10.6-19.8q-9.9-6.39-23.8-6.9-6,0-9.5-2.6a4.73,4.73,0,0,0-.7,2.6,207.92,207.92,0,0,1-4.6,21.4q-4.4,18.81-6.3,33-.49,3.3-1.9,14.2a5.5,5.5,0,0,0,.2,1.5,4.66,4.66,0,0,1,.2,1.2q0,1.8-2.1,1.8-2.49,0-3-1.8a19.53,19.53,0,0,1-.2-2.7q0-9.9,2.8-32.6,1.11-9.09,1.9-18.4a233.3,233.3,0,0,1,3.4-23.1q2.1-13.89,5.5-27.6,2-8.19,4.4-11.4a2.14,2.14,0,0,1,1.5-1l1.3.2a3.18,3.18,0,0,0,2.2-1.4,44.57,44.57,0,0,1,9.4-7,31.14,31.14,0,0,1,15.4-4.2,31.83,31.83,0,0,1,3.6.3,13.1,13.1,0,0,1,5.7,2.7q3.9,2.91,3.9,7a9.62,9.62,0,0,1-.6,3.2,34.1,34.1,0,0,1-5.7,10.6,184.49,184.49,0,0,1-26.9,28.3l-1.6,1.5q6.71.9,10.4,1.6a52.69,52.69,0,0,1,21,9.4,33.2,33.2,0,0,1,7.8,8.4,26.58,26.58,0,0,1,3.7,14.4,34.33,34.33,0,0,1-3,14,52.76,52.76,0,0,1-19.4,23.4,98.1,98.1,0,0,1-37.5,16A27.87,27.87,0,0,1,196.08,441Zm16.5-92.6a1.06,1.06,0,0,0,.5-.1q8.21-8.4,16.6-16.7,17.9-17.89,17.9-25.5a1.37,1.37,0,0,0-1.3-1.5,16.92,16.92,0,0,0-2.5-.2,15.26,15.26,0,0,0-3,.3q-12.71,2.21-22.3,12.8a3.1,3.1,0,0,0-1.2,2.2q-1.09,8.1-2.6,16.1-2.2,10.41-2.2,11.6Z" style="fill:url(#New_Gradient_Swatch)"/><path d="M292.08,421.5a13.33,13.33,0,0,1-2.3-.2q-13.09-2.19-16.9-17.4a56,56,0,0,1-1.5-13.2,72.94,72.94,0,0,1,1-11.4q4.39-28.59,26.7-63.6a67.08,67.08,0,0,1,12.5-14.6c2.13-1.86,4.2-2.8,6.2-2.8q6.2,0,6.2,8.1a34.34,34.34,0,0,1-.8,6.3,74.16,74.16,0,0,1-7.2,19,166.61,166.61,0,0,1-28.4,39.6,7.39,7.39,0,0,0-2,3.6,109.94,109.94,0,0,0-2.6,20.9l.1,3.8q.19,11.31,4.7,16.8a3.79,3.79,0,0,0,2.8,1.4,4.84,4.84,0,0,0,1.4-.2q5.2-1.69,10.7-10,8.51-12,20.3-34.2c.6-1.13,1.1-1.7,1.5-1.7a.53.53,0,0,1,.6.6q-1.5,4.5-16.9,32.8-4.9,8.91-8.5,12.8A9.85,9.85,0,0,1,292.08,421.5Zm-4.2-55.4a1.58,1.58,0,0,0,.9-.3,151.11,151.11,0,0,0,23.7-33.8q8.29-14.7,8.3-25.7a15.23,15.23,0,0,0-.6-4.2,8.46,8.46,0,0,0-3.7,2.8c0,.07,0,.1-.1.1q-9.79,12-21.1,40.5A209.62,209.62,0,0,0,287.88,366.1Z" style="fill:url(#New_Gradient_Swatch-2)"/><path d="M367.18,412a15.37,15.37,0,0,1-6.1-1.5,21.06,21.06,0,0,1-9.2-8.7,45.38,45.38,0,0,1-6.2-20.3l-.3-3q-.9.9-4.4,9.9-1.5,4.11-3.2,8.25a45.67,45.67,0,0,1-4.3,8.05,5.12,5.12,0,0,1-4.4,2.5,7,7,0,0,1-1.6-.2,10.48,10.48,0,0,1-8.5-8.2,36.52,36.52,0,0,1-.8-7.5,31.14,31.14,0,0,1,1-7.8,48,48,0,0,1,7.8-18.2,28.4,28.4,0,0,1,11.2-9.5,11,11,0,0,1,5.1-1.3,6.46,6.46,0,0,1,4.5,2.2l1.1-2.7q5.81-18.3,16.4-30.6a50.76,50.76,0,0,1,11.9-10.7,16.51,16.51,0,0,1,8-2.9q7.4,0,7.4,7.7a17.27,17.27,0,0,1-1.2,6.3,43.55,43.55,0,0,1-10,16.1,94,94,0,0,1-22.7,18.3,3.42,3.42,0,0,0-2,2.6,88.79,88.79,0,0,0-1.5,16.2q0,14.61,5.5,25.2,3.19,6.71,7,6.7a5.15,5.15,0,0,0,2.3-.6,24.39,24.39,0,0,0,9.6-7.55,69,69,0,0,0,7.6-11.75q3.3-6.39,5.7-12.2l1.9-4a2.31,2.31,0,0,1,1.4-1.1,1.18,1.18,0,0,1,1.05.4,1.5,1.5,0,0,1,.25.8l-3.3,7.3q-2.81,6-6.1,12.3-7.6,14.61-17.1,18.7A8.71,8.71,0,0,1,367.18,412Zm-38.1-9.3c1.47-.6,3.17-2.76,5.1-6.5a161.29,161.29,0,0,0,10.4-26.3q2.6-8.59,2.6-10.8a2.59,2.59,0,0,0-1.5-2.2,3,3,0,0,0-1.1-.3,2.75,2.75,0,0,0-1.9,1.1,31.16,31.16,0,0,0-4.8,6.2q-9.3,16.41-9.3,33.4A26.82,26.82,0,0,0,329.08,402.7Zm28.8-47.3,1.4-.7a95,95,0,0,0,23.9-20.2,32.93,32.93,0,0,0,6.6-11.1,18.82,18.82,0,0,0,1.2-5.9,5.64,5.64,0,0,0-2-4.5,4.16,4.16,0,0,0-2.9-1.1,9,9,0,0,0-3.4.8,24.89,24.89,0,0,0-6.7,5.4Q362.68,332.8,357.88,355.4Z" style="fill:url(#New_Gradient_Swatch-3)"/><path d="M428.08,458.1a23.66,23.66,0,0,1-4.3-.4q-8.5-2.1-8.5-10.8a28.39,28.39,0,0,1,2.9-11.5,79.82,79.82,0,0,1,10.5-17.4q6.39-8.1,13.5-15.8a3.23,3.23,0,0,0,1.3-2.5,2.9,2.9,0,0,0-.4-1.4,61.3,61.3,0,0,0-9.9-18.9,138.62,138.62,0,0,1-8.8-13.7,36.79,36.79,0,0,1-4.8-18,32.29,32.29,0,0,1,5.3-17.5,25.4,25.4,0,0,1,10.7-9.5,16,16,0,0,1,7.2-1.8,16.32,16.32,0,0,1,4.3.6q18.3,5.7,19.6,25.6a18.08,18.08,0,0,1-1.2,6.4c-.2.8-.54,1.2-1,1.2-.67,0-1-.36-1-1.1a16.38,16.38,0,0,1,.5-3.5,32.61,32.61,0,0,0,.3-4.2,24.59,24.59,0,0,0-3.9-12.9,20.53,20.53,0,0,0-12-8.9,12.61,12.61,0,0,0-3.8-.6,13.84,13.84,0,0,0-6.7,1.8q-13.31,7.9-13.3,23.5a28.1,28.1,0,0,0,2.5,11.6,47.88,47.88,0,0,0,6.6,11l6.4,7.9a166.92,166.92,0,0,1,10.5,13.7l.4.7.6.3a9.14,9.14,0,0,0,2-1.7q18.19-18.3,24.6-18.3c.53,0,.8.17.8.5s-.37.6-1.1,1q-5.91,2.21-12.4,8.7-2.31,2-11.3,11.1a4.75,4.75,0,0,0-1.1,1.6,5.26,5.26,0,0,0,.6,1.5,45.64,45.64,0,0,1,4.8,20.3,54.43,54.43,0,0,1-4,19.9,35.74,35.74,0,0,1-10.2,14.8Q436.67,458.11,428.08,458.1Zm-1.8-3a13.87,13.87,0,0,0,10-4.5,25.51,25.51,0,0,0,6.4-10.6,84.22,84.22,0,0,0,3.6-24.9,38.45,38.45,0,0,0-1.6-10.9q-2,1.41-10.7,12.5-10.71,13.5-14.2,24a17.4,17.4,0,0,0-1.1,6Q418.68,454.61,426.28,455.1Z" style="fill:url(#New_Gradient_Swatch-4)"/><path d="M469.48,440.7q-4,0-4-3.6v-3q0-30.3,15-70.5a31.7,31.7,0,0,1,3-6.3c.8-1.26,1.63-1.9,2.5-1.9q4.5.81,4.5,4.5a6.74,6.74,0,0,0-.2,1.5q-2,11.1-5,22a1.31,1.31,0,0,1-.1.45,2.08,2.08,0,0,0-.1.75,1.5,1.5,0,0,0,.2.7,185.19,185.19,0,0,1,11.9-17.4q14.7-19.69,23.6-19.7,5.79,0,9.4,6a20.42,20.42,0,0,1,2.2,9.2,36.17,36.17,0,0,1-1.8,11.7,1,1,0,0,0,.7.3,1.06,1.06,0,0,0,.55-.15.86.86,0,0,1,.45-.15q3.39-1.2,7.5-2.8a10.58,10.58,0,0,1,2.6-.6c1.06,0,1.6.4,1.6,1.2a.58.58,0,0,1-.35.5,1.9,1.9,0,0,1-.75.25,2.34,2.34,0,0,0-.6.15q-5.81,2.7-11.7,5a5.66,5.66,0,0,0-2.9,2.8,55.82,55.82,0,0,1-17.2,20.3,29.43,29.43,0,0,1-7.8,4.2,7.19,7.19,0,0,1-2.3.4,7.07,7.07,0,0,1-4.1-1.3,3.71,3.71,0,0,1-1.9-3.1c0-1.73.86-3.76,2.6-6.1a41.08,41.08,0,0,1,20.8-14.8,4.32,4.32,0,0,0,2.3-2.3,49.28,49.28,0,0,0,5.9-19.1l.2-1.8c0-4-1.14-6-3.4-6q-6.4,0-13,6.6a127.66,127.66,0,0,0-17.4,21.4q-10.5,15.81-12.3,22.7-8.29,35-8.5,35.4C471.24,439.84,470.55,440.7,469.48,440.7ZM500,401.2a51.43,51.43,0,0,0,8.15-6.45,38.49,38.49,0,0,0,6.25-7.35,36.63,36.63,0,0,0-9.45,6.75Q500.58,398.41,500,401.2Z" style="fill:url(#New_Gradient_Swatch-5)"/><path d="M583.68,401.7a8.68,8.68,0,0,1-5.45-2.1A18.66,18.66,0,0,1,574,395a29,29,0,0,1-3.6-13.7,20.69,20.69,0,0,1,.4-5.1q-2.5,3.9-6.6,9.5-7.41,9.9-13.2,9.9-6,0-8.5-6.9a25.36,25.36,0,0,1-1.1-7.7,38.71,38.71,0,0,1,4.3-17.7q7-13.89,18.8-13.9,6,0,8.7,4.6a11,11,0,0,1,1.5,5.6,11.18,11.18,0,0,1-.4,2.8,4.67,4.67,0,0,0,.9-1.6,28.65,28.65,0,0,1,5.1-8.1c1.86-1.86,3.63-2.8,5.3-2.8s2.7.77,2.7,2.3c0,.6-.57,1.87-1.7,3.8a63.63,63.63,0,0,0-8.6,30.6,20.72,20.72,0,0,0,1.3,7.5q1.69,4.61,4.8,4.6c1.33,0,2.9-.86,4.7-2.6q7.59-7,14.6-24a1.76,1.76,0,0,1,.9-.5,1.49,1.49,0,0,1,.85.25.71.71,0,0,1,.35.55l-.1.4Q593.38,401.71,583.68,401.7Zm-32.3-9.1q4,0,13.1-13,4-5.79,4.5-6.8a18.93,18.93,0,0,0,3.5-11.1c0-3.86-.7-6.5-2.1-7.9a6,6,0,0,0-4.4-1.4q-9.6,1.8-14.2,15.5a52.63,52.63,0,0,0-3,17C548.78,390,549.64,392.6,551.38,392.6Z" style="fill:url(#New_Gradient_Swatch-6)"/><path d="M270.22,215.19a33.72,33.72,0,0,1,6.36-.56c3.48,0,5.72.6,7.4,2a5.65,5.65,0,0,1,2.24,4.76,6.4,6.4,0,0,1-4.56,5.92v.08a7,7,0,0,1,5.56,6.76,7.27,7.27,0,0,1-2.28,5.4c-1.88,1.72-4.92,2.52-9.32,2.52a40.68,40.68,0,0,1-5.4-.32Zm3.48,11h3.16c3.68,0,5.84-1.92,5.84-4.52,0-3.16-2.4-4.4-5.92-4.4a14.93,14.93,0,0,0-3.08.24Zm0,12.92a18.6,18.6,0,0,0,2.92.16c3.6,0,6.92-1.32,6.92-5.24,0-3.68-3.16-5.2-7-5.2H273.7Z" style="fill:#964f3b"/><path d="M291.9,214.83h3.48v24H306.9v2.92h-15Z" style="fill:#964f3b"/><path d="M310.78,215.19a49.85,49.85,0,0,1,7.4-.56c5,0,8.56,1.16,10.92,3.36s3.8,5.32,3.8,9.68-1.36,8-3.88,10.48S322.34,242,317.1,242a56.17,56.17,0,0,1-6.32-.32ZM314.26,239a22,22,0,0,0,3.52.2c7.44,0,11.48-4.16,11.48-11.44,0-6.36-3.56-10.4-10.92-10.4a19.77,19.77,0,0,0-4.08.36Z" style="fill:#964f3b"/><path d="M350.26,233.31l-2.8,8.48h-3.6l9.16-27h4.2l9.2,27H362.7l-2.88-8.48Zm8.84-2.72-2.64-7.76c-.6-1.76-1-3.36-1.4-4.92H355c-.4,1.6-.84,3.24-1.36,4.88l-2.64,7.8Z" style="fill:#964f3b"/><path d="M388.62,240.91a17.27,17.27,0,0,1-7.12,1.28c-7.6,0-13.32-4.8-13.32-13.64,0-8.44,5.72-14.16,14.08-14.16a14.45,14.45,0,0,1,6.4,1.2l-.84,2.84a12.68,12.68,0,0,0-5.44-1.12c-6.32,0-10.52,4-10.52,11.12,0,6.6,3.8,10.84,10.36,10.84a13.93,13.93,0,0,0,5.68-1.12Z" style="fill:#964f3b"/><path d="M397.5,233.31l-2.8,8.48h-3.6l9.16-27h4.2l9.2,27h-3.72l-2.88-8.48Zm8.84-2.72-2.64-7.76c-.6-1.76-1-3.36-1.4-4.92h-.08c-.4,1.6-.84,3.24-1.36,4.88l-2.64,7.8Z" style="fill:#964f3b"/><path d="M417.62,215.19a49.85,49.85,0,0,1,7.4-.56c5,0,8.56,1.16,10.92,3.36s3.8,5.32,3.8,9.68-1.37,8-3.88,10.48S429.18,242,423.94,242a56.17,56.17,0,0,1-6.32-.32ZM421.1,239a22,22,0,0,0,3.52.2c7.44,0,11.48-4.16,11.48-11.44,0-6.36-3.56-10.4-10.92-10.4a19.77,19.77,0,0,0-4.08.36Z" style="fill:#964f3b"/><path d="M458.22,229.15H447.74v9.72h11.68v2.92H444.26v-27h14.56v2.92H447.74v8.52h10.48Z" style="fill:#964f3b"/><path d="M486.65,230c-.2-3.76-.44-8.28-.4-11.64h-.12c-.92,3.16-2,6.52-3.4,10.24L478,241.63h-2.64L471,228.79c-1.28-3.8-2.36-7.28-3.12-10.48h-.08c-.08,3.36-.28,7.88-.52,11.92l-.72,11.56h-3.32l1.88-27h4.44l4.6,13c1.12,3.32,2,6.28,2.72,9.08H477c.68-2.72,1.64-5.68,2.84-9.08l4.79-13h4.44l1.68,27h-3.4Z" style="fill:#964f3b"/><path d="M502.1,241.79V230.35l-8.52-15.52h4l3.8,7.44c1,2,1.84,3.68,2.68,5.56h.08c.76-1.76,1.68-3.52,2.72-5.56l3.88-7.44h3.95l-9,15.48v11.48Z" style="fill:#964f3b"/><path d="M269.22,215.19a33.72,33.72,0,0,1,6.36-.56c3.48,0,5.72.6,7.4,2a5.65,5.65,0,0,1,2.24,4.76,6.4,6.4,0,0,1-4.56,5.92v.08a7,7,0,0,1,5.56,6.76,7.27,7.27,0,0,1-2.28,5.4c-1.88,1.72-4.92,2.52-9.32,2.52a40.68,40.68,0,0,1-5.4-.32Zm3.48,11h3.16c3.68,0,5.84-1.92,5.84-4.52,0-3.16-2.4-4.4-5.92-4.4a14.93,14.93,0,0,0-3.08.24Zm0,12.92a18.6,18.6,0,0,0,2.92.16c3.6,0,6.92-1.32,6.92-5.24,0-3.68-3.16-5.2-7-5.2H272.7Z" style="fill:#feab9c"/><path d="M290.9,214.83h3.48v24H305.9v2.92h-15Z" style="fill:#feab9c"/><path d="M309.78,215.19a49.85,49.85,0,0,1,7.4-.56c5,0,8.56,1.16,10.92,3.36s3.8,5.32,3.8,9.68-1.36,8-3.88,10.48S321.34,242,316.1,242a56.17,56.17,0,0,1-6.32-.32ZM313.26,239a22,22,0,0,0,3.52.2c7.44,0,11.48-4.16,11.48-11.44,0-6.36-3.56-10.4-10.92-10.4a19.77,19.77,0,0,0-4.08.36Z" style="fill:#feab9c"/><path d="M349.26,233.31l-2.8,8.48h-3.6l9.16-27h4.2l9.2,27H361.7l-2.88-8.48Zm8.84-2.72-2.64-7.76c-.6-1.76-1-3.36-1.4-4.92H354c-.4,1.6-.84,3.24-1.36,4.88l-2.64,7.8Z" style="fill:#feab9c"/><path d="M387.62,240.91a17.27,17.27,0,0,1-7.12,1.28c-7.6,0-13.32-4.8-13.32-13.64,0-8.44,5.72-14.16,14.08-14.16a14.45,14.45,0,0,1,6.4,1.2l-.84,2.84a12.68,12.68,0,0,0-5.44-1.12c-6.32,0-10.52,4-10.52,11.12,0,6.6,3.8,10.84,10.36,10.84a13.93,13.93,0,0,0,5.68-1.12Z" style="fill:#feab9c"/><path d="M396.5,233.31l-2.8,8.48h-3.6l9.16-27h4.2l9.2,27h-3.72l-2.88-8.48Zm8.84-2.72-2.64-7.76c-.6-1.76-1-3.36-1.4-4.92h-.08c-.4,1.6-.84,3.24-1.36,4.88l-2.64,7.8Z" style="fill:#feab9c"/><path d="M416.62,215.19a49.85,49.85,0,0,1,7.4-.56c5,0,8.56,1.16,10.92,3.36s3.8,5.32,3.8,9.68-1.37,8-3.88,10.48S428.18,242,422.94,242a56.17,56.17,0,0,1-6.32-.32ZM420.1,239a22,22,0,0,0,3.52.2c7.44,0,11.48-4.16,11.48-11.44,0-6.36-3.56-10.4-10.92-10.4a19.77,19.77,0,0,0-4.08.36Z" style="fill:#feab9c"/><path d="M457.22,229.15H446.74v9.72h11.68v2.92H443.26v-27h14.56v2.92H446.74v8.52h10.48Z" style="fill:#feab9c"/><path d="M485.65,230c-.2-3.76-.44-8.28-.4-11.64h-.12c-.92,3.16-2,6.52-3.4,10.24L477,241.63h-2.64L470,228.79c-1.28-3.8-2.36-7.28-3.12-10.48h-.08c-.08,3.36-.28,7.88-.52,11.92l-.72,11.56h-3.32l1.88-27h4.44l4.6,13c1.12,3.32,2,6.28,2.72,9.08H476c.68-2.72,1.64-5.68,2.84-9.08l4.79-13h4.44l1.68,27h-3.4Z" style="fill:#feab9c"/><path d="M501.1,241.79V230.35l-8.52-15.52h4l3.8,7.44c1,2,1.84,3.68,2.68,5.56h.08c.76-1.76,1.68-3.52,2.72-5.56l3.88-7.44h3.95l-9,15.48v11.48Z" style="fill:#feab9c"/><path d="M268.22,215.19a33.72,33.72,0,0,1,6.36-.56c3.48,0,5.72.6,7.4,2a5.65,5.65,0,0,1,2.24,4.76,6.4,6.4,0,0,1-4.56,5.92v.08a7,7,0,0,1,5.56,6.76,7.27,7.27,0,0,1-2.28,5.4c-1.88,1.72-4.92,2.52-9.32,2.52a40.68,40.68,0,0,1-5.4-.32Zm3.48,11h3.16c3.68,0,5.84-1.92,5.84-4.52,0-3.16-2.4-4.4-5.92-4.4a14.93,14.93,0,0,0-3.08.24Zm0,12.92a18.6,18.6,0,0,0,2.92.16c3.6,0,6.92-1.32,6.92-5.24,0-3.68-3.16-5.2-7-5.2H271.7Z" style="fill:url(#New_Gradient_Swatch-7)"/><path d="M289.9,214.83h3.48v24H304.9v2.92h-15Z" style="fill:url(#New_Gradient_Swatch-8)"/><path d="M308.78,215.19a49.85,49.85,0,0,1,7.4-.56c5,0,8.56,1.16,10.92,3.36s3.8,5.32,3.8,9.68-1.36,8-3.88,10.48S320.34,242,315.1,242a56.17,56.17,0,0,1-6.32-.32ZM312.26,239a22,22,0,0,0,3.52.2c7.44,0,11.48-4.16,11.48-11.44,0-6.36-3.56-10.4-10.92-10.4a19.77,19.77,0,0,0-4.08.36Z" style="fill:url(#New_Gradient_Swatch-9)"/><path d="M348.26,233.31l-2.8,8.48h-3.6l9.16-27h4.2l9.2,27H360.7l-2.88-8.48Zm8.84-2.72-2.64-7.76c-.6-1.76-1-3.36-1.4-4.92H353c-.4,1.6-.84,3.24-1.36,4.88l-2.64,7.8Z" style="fill:url(#New_Gradient_Swatch-10)"/><path d="M386.62,240.91a17.27,17.27,0,0,1-7.12,1.28c-7.6,0-13.32-4.8-13.32-13.64,0-8.44,5.72-14.16,14.08-14.16a14.45,14.45,0,0,1,6.4,1.2l-.84,2.84a12.68,12.68,0,0,0-5.44-1.12c-6.32,0-10.52,4-10.52,11.12,0,6.6,3.8,10.84,10.36,10.84a13.93,13.93,0,0,0,5.68-1.12Z" style="fill:url(#New_Gradient_Swatch-11)"/><path d="M395.5,233.31l-2.8,8.48h-3.6l9.16-27h4.2l9.2,27h-3.72l-2.88-8.48Zm8.84-2.72-2.64-7.76c-.6-1.76-1-3.36-1.4-4.92h-.08c-.4,1.6-.84,3.24-1.36,4.88l-2.64,7.8Z" style="fill:url(#New_Gradient_Swatch-12)"/><path d="M415.62,215.19a49.85,49.85,0,0,1,7.4-.56c5,0,8.56,1.16,10.92,3.36s3.8,5.32,3.8,9.68-1.37,8-3.88,10.48S427.18,242,421.94,242a56.17,56.17,0,0,1-6.32-.32ZM419.1,239a22,22,0,0,0,3.52.2c7.44,0,11.48-4.16,11.48-11.44,0-6.36-3.56-10.4-10.92-10.4a19.77,19.77,0,0,0-4.08.36Z" style="fill:url(#New_Gradient_Swatch-13)"/><path d="M456.22,229.15H445.74v9.72h11.68v2.92H442.26v-27h14.56v2.92H445.74v8.52h10.48Z" style="fill:url(#New_Gradient_Swatch-14)"/><path d="M484.65,230c-.2-3.76-.44-8.28-.4-11.64h-.12c-.92,3.16-2,6.52-3.4,10.24L476,241.63h-2.64L469,228.79c-1.28-3.8-2.36-7.28-3.12-10.48h-.08c-.08,3.36-.28,7.88-.52,11.92l-.72,11.56h-3.32l1.88-27h4.44l4.6,13c1.12,3.32,2,6.28,2.72,9.08H475c.68-2.72,1.64-5.68,2.84-9.08l4.79-13h4.44l1.68,27h-3.4Z" style="fill:url(#New_Gradient_Swatch-15)"/><path d="M500.1,241.79V230.35l-8.52-15.52h4l3.8,7.44c1,2,1.84,3.68,2.68,5.56h.08c.76-1.76,1.68-3.52,2.72-5.56l3.88-7.44h3.95l-9,15.48v11.48Z" style="fill:url(#New_Gradient_Swatch-16)"/><g id="Layer_8" data-name="Layer 8"><path d="M183.42,554h-8.79l-17.11-28.07V554h-8.79V511.32h8.79l17.14,28.12V511.32h8.76Z" style="fill:#964f3b"/><path d="M246.76,535.49H229.88v11.42h19.81V554h-28.6V511.32h28.54v7.12H229.88V528.6h16.88Z" style="fill:#964f3b"/><path d="M315.06,541.67l5.75-30.35h8.76L320.1,554h-8.84l-6.95-28.54L297.37,554h-8.85l-9.46-42.66h8.76l5.77,30.29,7-30.29h7.44Z" style="fill:#964f3b"/><path d="M424,530.54l8.88-19.22h9.61l-14,27.19V554h-8.93V538.51l-14-27.19h9.64Z" style="fill:#964f3b"/><path d="M508.38,533.61a25.86,25.86,0,0,1-2.22,11,16.8,16.8,0,0,1-6.38,7.32,18.82,18.82,0,0,1-19,0,16.89,16.89,0,0,1-6.44-7.28,24.9,24.9,0,0,1-2.31-10.88v-2.11a25.52,25.52,0,0,1,2.27-11.09,16.91,16.91,0,0,1,6.41-7.35,18.77,18.77,0,0,1,19,0,16.91,16.91,0,0,1,6.41,7.35,25.44,25.44,0,0,1,2.27,11.06Zm-8.9-1.93q0-6.7-2.41-10.19a8.48,8.48,0,0,0-13.68,0q-2.4,3.45-2.43,10.09v2.08q0,6.54,2.4,10.14a7.83,7.83,0,0,0,6.92,3.6,7.71,7.71,0,0,0,6.79-3.47q2.39-3.46,2.41-10.12Z" style="fill:#964f3b"/><path d="M557.56,538.36h-7V554h-8.79V511.32h15.85q7.56,0,11.66,3.37t4.1,9.52a13.11,13.11,0,0,1-1.89,7.28,12.89,12.89,0,0,1-5.73,4.64L575,553.57V554h-9.43Zm-7-7.12h7.09a7.29,7.29,0,0,0,5.13-1.68,6,6,0,0,0,1.81-4.65,6.44,6.44,0,0,0-1.71-4.74c-1.14-1.16-2.9-1.73-5.26-1.73h-7.06Z" style="fill:#964f3b"/><path d="M620.42,536.87l-4.57,4.92V554h-8.79V511.32h8.79v19.34l3.87-5.31,10.87-14H641.4l-15.15,18.95L641.84,554H631.38Z" style="fill:#964f3b"/><g id="Layer_6" data-name="Layer 6"><path d="M179.29,554H170.5l-17.11-28.07V554H144.6V511.29h8.79l17.14,28.12V511.29h8.76Z" style="fill:url(#New_Gradient_Swatch-17)"/><path d="M242.63,535.46H225.76v11.43h19.8V554H217V511.29H245.5v7.12H225.76v10.17h16.87Z" style="fill:url(#New_Gradient_Swatch-18)"/><path d="M310.94,541.64l5.74-30.35h8.76L316,554h-8.85l-6.94-28.54L293.24,554H284.4l-9.47-42.66h8.76l5.78,30.29,7-30.29h7.44Z" style="fill:url(#New_Gradient_Swatch-19)"/><path d="M419.84,530.51l8.87-19.22h9.61l-14,27.19V554h-8.94V538.48l-14-27.19H411Z" style="fill:url(#New_Gradient_Swatch-20)"/><path d="M504.26,533.58a25.68,25.68,0,0,1-2.23,11,16.72,16.72,0,0,1-6.37,7.32,18.82,18.82,0,0,1-19,0,17,17,0,0,1-6.45-7.28,25,25,0,0,1-2.31-10.88v-2.11a25.66,25.66,0,0,1,2.27-11.09,16.87,16.87,0,0,1,6.42-7.35,18.75,18.75,0,0,1,18.95,0,16.93,16.93,0,0,1,6.42,7.35,25.59,25.59,0,0,1,2.27,11.06Zm-8.91-1.93q0-6.71-2.4-10.19a8.48,8.48,0,0,0-13.68-.05q-2.4,3.45-2.43,10.09v2.08q0,6.54,2.4,10.14a7.82,7.82,0,0,0,6.91,3.61,7.73,7.73,0,0,0,6.8-3.48q2.37-3.47,2.4-10.12Z" style="fill:url(#New_Gradient_Swatch-21)"/><path d="M553.44,538.33h-7V554h-8.78V511.29h15.84q7.56,0,11.67,3.37t4.1,9.52a13.11,13.11,0,0,1-1.89,7.28,12.89,12.89,0,0,1-5.73,4.64l9.23,17.44V554h-9.44Zm-7-7.12h7.09a7.27,7.27,0,0,0,5.13-1.68,6,6,0,0,0,1.82-4.65,6.4,6.4,0,0,0-1.72-4.74q-1.71-1.73-5.26-1.73h-7.06Z" style="fill:url(#New_Gradient_Swatch-22)"/><path d="M616.3,536.84l-4.57,4.92V554h-8.79V511.29h8.79v19.34l3.86-5.31,10.87-14h10.81l-15.14,18.95L637.71,554H627.25Z" style="fill:url(#New_Gradient_Swatch-23)"/></g></g></g></svg>