<svg xmlns="http://www.w3.org/2000/svg" xmlns:xlink="http://www.w3.org/1999/xlink" viewBox="0 0 1188.54 1252.54"><defs><clipPath id="clip-path"><path d="M1087.44,763.06c-2.92-24.23-12.74-45-26.92-60.24-9.25-12-15.92-28.55-18.22-47.67-2.75-22.84,1.27-44.89,9.92-61.8a126.28,126.28,0,0,0,14-74.88c-6.89-57.21-51.14-94-98.42-83.4-5.78,1.3-6.29,2.91-17.44,6.18-26.59,7.81-46.31,13.6-59.72,2-22.08-19-16.74-76.14-16.48-78.77h0c4.5-39.11-5.3-77.47-29.55-98.31a82.57,82.57,0,0,0-33-17.37c-22.35-5.85-73.36-27.46-146.23,27.09-22.86,17.11-42.06,28.35-58.57,35.43a79.53,79.53,0,0,1-13.22-13c-22.61-32.22-59.44-49-98.24-40.27-28.41,6.39-52.61,25.3-69,50.85h0c-20.46,33.39-60.06,61.4-107.7,72.13-31.27,7-61,5.5-85.46-2.8a83.27,83.27,0,0,0-49.75-3.8C130.79,386.33,94,444,101.09,503.26c2.93,24.23,12.75,45,26.93,60.23,9.24,12,15.91,28.56,18.22,47.68C149,634,145,656.06,136.32,673a126.32,126.32,0,0,0-14,74.89c6.89,57.21,51.14,94,98.42,83.39,5.77-1.3,6.28-2.9,17.44-6.17,26.59-7.81,46.31-13.6,59.72-2,22.08,19,16.74,76.14,16.47,78.76h0c-4.5,39.11,5.3,77.47,29.55,98.31a82.69,82.69,0,0,0,33,17.37c22.35,5.84,73.36,27.46,146.23-27.09,22.86-17.11,42-28.35,58.57-35.43a80.33,80.33,0,0,1,13.22,13c22.61,32.23,59.44,49,98.24,40.28,28.41-6.4,52.61-25.3,69-50.85h0C782.7,924,822.3,896,869.93,885.23c31.28-7,61-5.5,85.47,2.79a83.19,83.19,0,0,0,49.75,3.81C1057.75,880,1094.59,822.34,1087.44,763.06Z" style="fill:none"/></clipPath></defs><g id="Layer_2" data-name="Layer 2"><path d="M1150.76,772.85c-3.29-27.34-14.38-50.75-30.38-68-10.43-13.58-18-32.22-20.56-53.79-3.11-25.78,1.43-50.66,11.2-69.73a142.69,142.69,0,0,0,15.76-84.51c-7.78-64.55-57.71-106.11-111.06-94.1-6.51,1.47-7.09,3.28-19.67,7-30,8.82-52.26,15.35-67.4,2.29-24.91-21.48-18.89-85.92-18.58-88.88h0c5.07-44.13-6-87.42-33.35-110.93a93.21,93.21,0,0,0-37.25-19.61c-25.22-6.59-82.78-31-165,30.58-25.79,19.3-47.45,32-66.09,40a89.38,89.38,0,0,1-14.91-14.63c-25.52-36.36-67.08-55.3-110.86-45.45-32.06,7.22-59.37,28.56-77.83,57.38h0c-23.1,37.69-67.78,69.29-121.53,81.4-35.29,7.94-68.85,6.21-96.44-3.16a93.89,93.89,0,0,0-56.14-4.29C71.29,347.75,29.71,412.8,37.78,479.69c3.29,27.34,14.38,50.75,30.38,68,10.43,13.58,18,32.22,20.56,53.79,3.1,25.78-1.43,50.66-11.2,69.73a142.69,142.69,0,0,0-15.76,84.51c7.78,64.55,57.71,106.11,111.05,94.1,6.52-1.47,7.1-3.28,19.68-7,30-8.82,52.26-15.35,67.4-2.29,24.9,21.48,18.89,85.92,18.58,88.88h0c-5.07,44.13,6,87.42,33.35,110.93A93.21,93.21,0,0,0,349.09,1060c25.22,6.59,82.78,31,165-30.58,25.79-19.3,47.45-32,66.09-40A89.38,89.38,0,0,1,595.1,1004c25.52,36.36,67.08,55.3,110.86,45.45,32.06-7.22,59.37-28.56,77.83-57.38h0c23.09-37.69,67.78-69.29,121.53-81.4,35.29-7.94,68.85-6.21,96.44,3.16a93.89,93.89,0,0,0,56.14,4.29C1117.25,904.79,1158.83,839.74,1150.76,772.85Z" style="fill:#e7a993"/></g><g id="Layer_7" data-name="Layer 7"><g style="clip-path:url(#clip-path)"><image width="5430" height="3620" transform="translate(4.05 236.98) scale(0.22)" xlink:href="../../../../images/main3.jpg"/></g></g></svg>