<svg xmlns="http://www.w3.org/2000/svg" viewBox="0 0 489.07 1093.71"><g id="Layer_1" data-name="Layer 1"><path d="M369.67,430.42c-37-9.82-68.31-29.62-84.71-56.77-13.73-22.72-14.73-46.85-5.28-68.64a190.15,190.15,0,0,0,13.65-59.52s3.58-57.24-30.7-117.83C222.76,57.23,122.36,5.7,0,0L-7.79,1093.71c24.7-13.35,148.78-54.28,162.49-62.53,24.15-14.54,44.72-31.59,59.32-50.35,35.5-45.65,20-96.22-29.5-133.86h0c-5.47-5.52-17.43-19.15-21.24-40.06a76.69,76.69,0,0,1,4.9-43c18.38-44.47,75.27-66,116.68-72.44a391.59,391.59,0,0,0,46.66-10.12c120.4-34,186.37-116,145.3-184C457.52,465.35,418.31,442.31,369.67,430.42Z" style="fill:#c27f67;opacity:0.75"/></g><g id="Layer_2" data-name="Layer 2"><path d="M99.54-90.14C156.92,10.72,218.26,159.2,178.69,312.18,138.33,468.23,22.85,513.42,2.81,648.55c-13.14,88.66,13.68,223.59,213.25,413.31" style="fill:none;stroke:#f8f7f7;stroke-miterlimit:10;stroke-width:6.609847051170334px"/></g></svg>