<svg id="Layer_1" data-name="Layer 1" xmlns="http://www.w3.org/2000/svg" viewBox="0 0 475.42 666.72"><path d="M475.42,63.35a70.68,70.68,0,0,1-25.81,7.94c-25.54,2.84-49.44-7.72-62.41-25.37a103.58,103.58,0,0,0-13-15.87C335.63-8.51,274.31-10.4,237,26.91a92.73,92.73,0,0,0-13.11,16.46c-9.3,14.88-9.2,25.77-14.19,47.36-6.22,26.94-9.33,40.41-17.21,46.61-11.05,8.7-21.21,3-52.2,3.81-10.34.26-39.57,1.65-66,11C58,157.9,29.65,167.93,13.87,192.81-11.9,233.45,5.18,299.16,40.25,326.92,74.84,354.29,104,358.79,104,358.79c6.89,1.07,26.76,4.56,39.91,19.24a13.52,13.52,0,0,1,1.86,2.75c15.09,28.32-45.38,66-35.17,112.12,6.3,28.49,36,44.18,44,48.37,33.12,17.47,55.53,19.41,130.53,4.24,50.4-10.19,76.15.19,90.41,12.25,34.21,28.91,23,84.9,60.58,104.34,14.16,7.32,29.24,6.37,39.32,4.61Z" style="fill:#e7a993;opacity:0.75"/><path d="M428.29,32.32c-13.09-.15-100.4.24-157.2,69.25-9.52,11.58-40.79,49.57-40.67,100,.25,99.17,121.44,127.89,142.9,219.85,11.17,47.86-2.45,122.39-119.81,236.34" style="fill:none;stroke:#f8f7f7;stroke-miterlimit:10;stroke-width:4px"/></svg>