<svg xmlns="http://www.w3.org/2000/svg" viewBox="0 0 924.81 903.37"><g id="Layer_2" data-name="Layer 2"><path d="M924.81,107.17c-31.15,8.15-58.22-21.23-67.36-32.65C826.88,30,770.07,0,705,0,657.4,0,614.19,16.07,582.45,42.18h0c-40,34.38-110.11,57.18-190,57.18C340,99.35,291.81,89.52,253.54,73a185.4,185.4,0,0,0-80.45-17.92c-88.17,0-159.65,58.94-159.65,131.65,0,29.72,12,57.14,32.09,79.17a102.48,102.48,0,0,1,20.36,61.83c0,28-10.9,53.28-28.35,71.13C14.22,421.49,0,451.55,0,484.57c0,70.17,65,126.06,144.22,126.06,9.69,0,10.83-1.78,29.68-2.69,44.94-2.18,78.26-3.79,97.88,13.64,32.27,28.67,12.33,95.43,11.38,98.49h0c-15,45.49-6.59,93.94,28.89,125.35a158.47,158.47,0,0,0,50.46,29.62c35.34,13,114.34,52.52,244,7,204.62-71.88,229,8.68,318.28,16.83Z" style="fill:#e7a993;opacity:0.75"/><path d="M269.58,0C253.82,14.39,166,97.25,166.25,225.85c.26,146.94,136,242.34,193.46,283.61,42.6,30.56,103.88,56.28,226.45,107.72,168.08,70.55,242.3,87.2,268.21,153.89,17.18,44.23,5.28,90.26-6.59,120.92" style="fill:none;stroke:#f8f7f7;stroke-miterlimit:10;stroke-width:4px"/></g></svg>