<svg id="Layer_1" data-name="Layer 1" xmlns="http://www.w3.org/2000/svg" xmlns:xlink="http://www.w3.org/1999/xlink" viewBox="0 0 204.77 58.26"><defs><linearGradient id="linear-gradient" y1="26.52" x2="40.95" y2="26.52" gradientUnits="userSpaceOnUse"><stop offset="0" stop-color="#ffdb76"/><stop offset="1" stop-color="#f9bd16"/></linearGradient><linearGradient id="linear-gradient-2" x1="40.95" y1="26.52" x2="81.89" y2="26.52" gradientUnits="userSpaceOnUse"><stop offset="0" stop-color="#febf40"/><stop offset="1" stop-color="#f7851e"/></linearGradient><linearGradient id="linear-gradient-3" x1="81.89" y1="26.52" x2="122.84" y2="26.52" gradientUnits="userSpaceOnUse"><stop offset="0" stop-color="#fd9738"/><stop offset="1" stop-color="#f76016"/></linearGradient><linearGradient id="linear-gradient-4" x1="122.84" y1="26.52" x2="163.79" y2="26.52" gradientUnits="userSpaceOnUse"><stop offset="0" stop-color="#fc7449"/><stop offset="0.6" stop-color="#f94c1e"/></linearGradient><linearGradient id="linear-gradient-5" x1="163.82" y1="26.52" x2="204.77" y2="26.52" gradientUnits="userSpaceOnUse"><stop offset="0.01" stop-color="#fc6931"/><stop offset="1" stop-color="#ff1d00"/></linearGradient></defs><polygon points="14.29 19.51 20.89 7.42 27.21 19.51 40.95 22.26 31.05 31.33 33.53 45.62 20.61 39.57 8.52 45.62 10.44 31.6 0 22.53 14.29 19.51" style="fill:url(#linear-gradient)"/><polygon points="55.24 19.51 61.83 7.42 68.15 19.51 81.89 22.26 72 31.33 74.47 45.62 61.56 39.57 49.47 45.62 51.39 31.6 40.95 22.53 55.24 19.51" style="fill:url(#linear-gradient-2)"/><polygon points="96.18 19.51 102.78 7.42 109.1 19.51 122.84 22.26 112.95 31.33 115.42 45.62 102.5 39.57 90.41 45.62 92.34 31.6 81.89 22.53 96.18 19.51" style="fill:url(#linear-gradient-3)"/><polygon points="137.13 19.51 143.72 7.42 150.05 19.51 163.79 22.26 153.89 31.33 156.37 45.62 143.45 39.57 131.36 45.62 133.28 31.6 122.84 22.53 137.13 19.51" style="fill:url(#linear-gradient-4)"/><polygon points="178.12 19.51 184.71 7.42 191.03 19.51 204.77 22.26 194.88 31.33 197.35 45.62 184.44 39.57 172.34 45.62 174.27 31.6 163.82 22.53 178.12 19.51" style="fill:url(#linear-gradient-5)"/></svg>